<?xml version="1.0" encoding="UTF-8" standalone="no"?>
<!DOCTYPE svg PUBLIC "-//W3C//DTD SVG 1.1//EN"
 "http://www.w3.org/Graphics/SVG/1.1/DTD/svg11.dtd">
<!-- Generated by graphviz version 2.49.0 (0)
 -->
<!-- Pages: 1 -->
<svg width="345pt" height="480pt"
 viewBox="0.00 0.00 345.12 480.00" xmlns="http://www.w3.org/2000/svg" xmlns:xlink="http://www.w3.org/1999/xlink">
<g id="graph0" class="graph" transform="scale(1 1) rotate(0) translate(4 476)">
<polygon fill="white" stroke="transparent" points="-4,4 -4,-476 341.12,-476 341.12,4 -4,4"/>
<!-- 139891500084416 -->
<g id="node1" class="node">
<title>139891500084416</title>
<polygon fill="#caff70" stroke="black" points="203.55,-32 149.55,-32 149.55,0 203.55,0 203.55,-32"/>
<text text-anchor="middle" x="176.55" y="-7" font-family="monospace" font-size="10.00"> ()</text>
</g>
<!-- 139898402179152 -->
<g id="node2" class="node">
<title>139898402179152</title>
<polygon fill="lightgrey" stroke="black" points="223.24,-88 129.85,-88 129.85,-68 223.24,-68 223.24,-88"/>
<text text-anchor="middle" x="176.55" y="-75" font-family="monospace" font-size="10.00">NllLossBackward0</text>
</g>
<!-- 139898402179152&#45;&gt;139891500084416 -->
<g id="edge13" class="edge">
<title>139898402179152&#45;&gt;139891500084416</title>
<path fill="none" stroke="black" d="M176.55,-67.89C176.55,-61.1 176.55,-51.48 176.55,-42.44"/>
<polygon fill="black" stroke="black" points="180.05,-42.28 176.55,-32.28 173.05,-42.28 180.05,-42.28"/>
</g>
<!-- 139898402179728 -->
<g id="node3" class="node">
<title>139898402179728</title>
<polygon fill="lightgrey" stroke="black" points="232.07,-144 121.02,-144 121.02,-124 232.07,-124 232.07,-144"/>
<text text-anchor="middle" x="176.55" y="-131" font-family="monospace" font-size="10.00">LogSoftmaxBackward0</text>
</g>
<!-- 139898402179728&#45;&gt;139898402179152 -->
<g id="edge1" class="edge">
<title>139898402179728&#45;&gt;139898402179152</title>
<path fill="none" stroke="black" d="M176.55,-123.59C176.55,-116.7 176.55,-107.1 176.55,-98.57"/>
<polygon fill="black" stroke="black" points="180.05,-98.3 176.55,-88.3 173.05,-98.3 180.05,-98.3"/>
</g>
<!-- 139898402708352 -->
<g id="node4" class="node">
<title>139898402708352</title>
<polygon fill="lightgrey" stroke="black" points="239.45,-200 113.64,-200 113.64,-180 239.45,-180 239.45,-200"/>
<text text-anchor="middle" x="176.55" y="-187" font-family="monospace" font-size="10.00">GCNFuncNONEBackward</text>
</g>
<!-- 139898402708352&#45;&gt;139898402179728 -->
<g id="edge2" class="edge">
<title>139898402708352&#45;&gt;139898402179728</title>
<path fill="none" stroke="black" d="M176.55,-179.59C176.55,-172.7 176.55,-163.1 176.55,-154.57"/>
<polygon fill="black" stroke="black" points="180.05,-154.3 176.55,-144.3 173.05,-154.3 180.05,-154.3"/>
</g>
<!-- 139898402178720 -->
<g id="node5" class="node">
<title>139898402178720</title>
<polygon fill="lightgrey" stroke="black" points="113.97,-262 33.12,-262 33.12,-242 113.97,-242 113.97,-262"/>
<text text-anchor="middle" x="73.55" y="-249" font-family="monospace" font-size="10.00">ReluBackward0</text>
</g>
<!-- 139898402178720&#45;&gt;139898402708352 -->
<g id="edge3" class="edge">
<title>139898402178720&#45;&gt;139898402708352</title>
<path fill="none" stroke="black" d="M89.19,-241.89C106,-232.1 132.93,-216.41 152.45,-205.04"/>
<polygon fill="black" stroke="black" points="154.21,-208.06 161.09,-200 150.69,-202.01 154.21,-208.06"/>
</g>
<!-- 139898402708592 -->
<g id="node6" class="node">
<title>139898402708592</title>
<polygon fill="lightgrey" stroke="black" points="136.45,-330 10.64,-330 10.64,-310 136.45,-310 136.45,-330"/>
<text text-anchor="middle" x="73.55" y="-317" font-family="monospace" font-size="10.00">GCNFuncNONEBackward</text>
</g>
<!-- 139898402708592&#45;&gt;139898402178720 -->
<g id="edge4" class="edge">
<title>139898402708592&#45;&gt;139898402178720</title>
<path fill="none" stroke="black" d="M73.55,-309.82C73.55,-300.17 73.55,-284.69 73.55,-272.32"/>
<polygon fill="black" stroke="black" points="77.05,-272.1 73.55,-262.1 70.05,-272.1 77.05,-272.1"/>
</g>
<!-- 139898402179440 -->
<g id="node7" class="node">
<title>139898402179440</title>
<polygon fill="lightgrey" stroke="black" points="115.85,-398 31.25,-398 31.25,-378 115.85,-378 115.85,-398"/>
<text text-anchor="middle" x="73.55" y="-385" font-family="monospace" font-size="10.00">AccumulateGrad</text>
</g>
<!-- 139898402179440&#45;&gt;139898402708592 -->
<g id="edge5" class="edge">
<title>139898402179440&#45;&gt;139898402708592</title>
<path fill="none" stroke="black" d="M73.55,-377.82C73.55,-368.17 73.55,-352.69 73.55,-340.32"/>
<polygon fill="black" stroke="black" points="77.05,-340.1 73.55,-330.1 70.05,-340.1 77.05,-340.1"/>
</g>
<!-- 139898402176512 -->
<g id="node8" class="node">
<title>139898402176512</title>
<polygon fill="orange" stroke="black" points="77.14,-472 -0.05,-472 -0.05,-440 77.14,-440 77.14,-472"/>
<text text-anchor="middle" x="38.55" y="-459" font-family="monospace" font-size="10.00">layers.0.weight</text>
<text text-anchor="middle" x="38.55" y="-447" font-family="monospace" font-size="10.00"> (128, 256)</text>
</g>
<!-- 139898402176512&#45;&gt;139898402708592 -->
<g id="edge8" class="edge">
<title>139898402176512&#45;&gt;139898402708592</title>
<path fill="none" stroke="black" d="M30.55,-439.78C22.72,-422.72 13.22,-394.51 22.55,-372 28.5,-357.62 40.7,-345.18 51.67,-336.19"/>
<polygon fill="black" stroke="black" points="53.91,-338.88 59.7,-330.01 49.64,-333.33 53.91,-338.88"/>
</g>
<!-- 139898402176512&#45;&gt;139898402179440 -->
<g id="edge6" class="edge">
<title>139898402176512&#45;&gt;139898402179440</title>
<path fill="none" stroke="black" d="M46.66,-439.69C51.81,-430 58.48,-417.41 63.89,-407.2"/>
<polygon fill="black" stroke="black" points="67.01,-408.79 68.61,-398.32 60.83,-405.51 67.01,-408.79"/>
</g>
<!-- 139891500083936 -->
<g id="node9" class="node">
<title>139891500083936</title>
<polygon fill="orange" stroke="black" points="203.7,-404 133.39,-404 133.39,-372 203.7,-372 203.7,-404"/>
<text text-anchor="middle" x="168.55" y="-379" font-family="monospace" font-size="10.00"> (51200, 128)</text>
</g>
<!-- 139891500083936&#45;&gt;139898402708592 -->
<g id="edge7" class="edge">
<title>139891500083936&#45;&gt;139898402708592</title>
<path fill="none" stroke="black" d="M146.51,-371.69C131.02,-360.93 110.41,-346.61 95.04,-335.94"/>
<polygon fill="black" stroke="black" points="96.89,-332.96 86.68,-330.13 92.9,-338.71 96.89,-332.96"/>
</g>
<!-- 139898402179248 -->
<g id="node10" class="node">
<title>139898402179248</title>
<polygon fill="lightgrey" stroke="black" points="253.85,-262 169.25,-262 169.25,-242 253.85,-242 253.85,-262"/>
<text text-anchor="middle" x="211.55" y="-249" font-family="monospace" font-size="10.00">AccumulateGrad</text>
</g>
<!-- 139898402179248&#45;&gt;139898402708352 -->
<g id="edge9" class="edge">
<title>139898402179248&#45;&gt;139898402708352</title>
<path fill="none" stroke="black" d="M206.23,-241.89C201.14,-233.17 193.33,-219.77 186.99,-208.91"/>
<polygon fill="black" stroke="black" points="189.97,-207.07 181.91,-200.2 183.93,-210.6 189.97,-207.07"/>
</g>
<!-- 139898402176592 -->
<g id="node11" class="node">
<title>139898402176592</title>
<polygon fill="orange" stroke="black" points="240.14,-336 162.95,-336 162.95,-304 240.14,-304 240.14,-336"/>
<text text-anchor="middle" x="201.55" y="-323" font-family="monospace" font-size="10.00">layers.1.weight</text>
<text text-anchor="middle" x="201.55" y="-311" font-family="monospace" font-size="10.00"> (256, 24)</text>
</g>
<!-- 139898402176592&#45;&gt;139898402708352 -->
<g id="edge12" class="edge">
<title>139898402176592&#45;&gt;139898402708352</title>
<path fill="none" stroke="black" d="M184.67,-303.79C175.63,-294.47 165.38,-281.72 160.55,-268 153.7,-248.56 160.49,-225.28 167.21,-209.44"/>
<polygon fill="black" stroke="black" points="170.46,-210.77 171.48,-200.22 164.1,-207.83 170.46,-210.77"/>
</g>
<!-- 139898402176592&#45;&gt;139898402179248 -->
<g id="edge10" class="edge">
<title>139898402176592&#45;&gt;139898402179248</title>
<path fill="none" stroke="black" d="M203.86,-303.69C205.27,-294.4 207.08,-282.44 208.59,-272.47"/>
<polygon fill="black" stroke="black" points="212.1,-272.73 210.13,-262.32 205.18,-271.68 212.1,-272.73"/>
</g>
<!-- 139891500084016 -->
<g id="node12" class="node">
<title>139891500084016</title>
<polygon fill="orange" stroke="black" points="337.2,-268 271.89,-268 271.89,-236 337.2,-236 337.2,-268"/>
<text text-anchor="middle" x="304.55" y="-243" font-family="monospace" font-size="10.00"> (5120, 256)</text>
</g>
<!-- 139891500084016&#45;&gt;139898402708352 -->
<g id="edge11" class="edge">
<title>139891500084016&#45;&gt;139898402708352</title>
<path fill="none" stroke="black" d="M272.25,-235.86C251.62,-226.19 225.13,-213.77 205.25,-204.45"/>
<polygon fill="black" stroke="black" points="206.61,-201.23 196.07,-200.15 203.64,-207.57 206.61,-201.23"/>
</g>
</g>
</svg>
