<?xml version="1.0" encoding="UTF-8" standalone="no"?>
<!DOCTYPE svg PUBLIC "-//W3C//DTD SVG 1.1//EN"
 "http://www.w3.org/Graphics/SVG/1.1/DTD/svg11.dtd">
<!-- Generated by graphviz version 2.49.0 (0)
 -->
<!-- Pages: 1 -->
<svg width="320pt" height="512pt"
 viewBox="0.00 0.00 319.65 512.00" xmlns="http://www.w3.org/2000/svg" xmlns:xlink="http://www.w3.org/1999/xlink">
<g id="graph0" class="graph" transform="scale(1 1) rotate(0) translate(4 508)">
<polygon fill="white" stroke="transparent" points="-4,4 -4,-508 315.65,-508 315.65,4 -4,4"/>
<!-- 139673143333328 -->
<g id="node1" class="node">
<title>139673143333328</title>
<polygon fill="#caff70" stroke="black" points="226.41,-32 172.41,-32 172.41,0 226.41,0 226.41,-32"/>
<text text-anchor="middle" x="199.41" y="-7" font-family="monospace" font-size="10.00"> ()</text>
</g>
<!-- 139673143179584 -->
<g id="node2" class="node">
<title>139673143179584</title>
<polygon fill="lightgrey" stroke="black" points="246.11,-88 152.71,-88 152.71,-68 246.11,-68 246.11,-88"/>
<text text-anchor="middle" x="199.41" y="-75" font-family="monospace" font-size="10.00">NllLossBackward0</text>
</g>
<!-- 139673143179584&#45;&gt;139673143333328 -->
<g id="edge14" class="edge">
<title>139673143179584&#45;&gt;139673143333328</title>
<path fill="none" stroke="black" d="M199.41,-67.89C199.41,-61.1 199.41,-51.48 199.41,-42.44"/>
<polygon fill="black" stroke="black" points="202.91,-42.28 199.41,-32.28 195.91,-42.28 202.91,-42.28"/>
</g>
<!-- 139673143181168 -->
<g id="node3" class="node">
<title>139673143181168</title>
<polygon fill="lightgrey" stroke="black" points="239.94,-144 158.88,-144 158.88,-124 239.94,-124 239.94,-144"/>
<text text-anchor="middle" x="199.41" y="-131" font-family="monospace" font-size="10.00">SliceBackward0</text>
</g>
<!-- 139673143181168&#45;&gt;139673143179584 -->
<g id="edge1" class="edge">
<title>139673143181168&#45;&gt;139673143179584</title>
<path fill="none" stroke="black" d="M199.41,-123.59C199.41,-116.7 199.41,-107.1 199.41,-98.57"/>
<polygon fill="black" stroke="black" points="202.91,-98.3 199.41,-88.3 195.91,-98.3 202.91,-98.3"/>
</g>
<!-- 139673143180304 -->
<g id="node4" class="node">
<title>139673143180304</title>
<polygon fill="lightgrey" stroke="black" points="254.94,-200 143.88,-200 143.88,-180 254.94,-180 254.94,-200"/>
<text text-anchor="middle" x="199.41" y="-187" font-family="monospace" font-size="10.00">LogSoftmaxBackward0</text>
</g>
<!-- 139673143180304&#45;&gt;139673143181168 -->
<g id="edge2" class="edge">
<title>139673143180304&#45;&gt;139673143181168</title>
<path fill="none" stroke="black" d="M199.41,-179.59C199.41,-172.7 199.41,-163.1 199.41,-154.57"/>
<polygon fill="black" stroke="black" points="202.91,-154.3 199.41,-144.3 195.91,-154.3 202.91,-154.3"/>
</g>
<!-- 139673143179968 -->
<g id="node5" class="node">
<title>139673143179968</title>
<polygon fill="lightgrey" stroke="black" points="238.66,-256 160.16,-256 160.16,-236 238.66,-236 238.66,-256"/>
<text text-anchor="middle" x="199.41" y="-243" font-family="monospace" font-size="10.00">AddBackward0</text>
</g>
<!-- 139673143179968&#45;&gt;139673143180304 -->
<g id="edge3" class="edge">
<title>139673143179968&#45;&gt;139673143180304</title>
<path fill="none" stroke="black" d="M199.41,-235.59C199.41,-228.7 199.41,-219.1 199.41,-210.57"/>
<polygon fill="black" stroke="black" points="202.91,-210.3 199.41,-200.3 195.91,-210.3 202.91,-210.3"/>
</g>
<!-- 139673143179872 -->
<g id="node6" class="node">
<title>139673143179872</title>
<polygon fill="lightgrey" stroke="black" points="194.72,-312 100.1,-312 100.1,-292 194.72,-292 194.72,-312"/>
<text text-anchor="middle" x="147.41" y="-299" font-family="monospace" font-size="10.00">AddmmBackward0</text>
</g>
<!-- 139673143179872&#45;&gt;139673143179968 -->
<g id="edge4" class="edge">
<title>139673143179872&#45;&gt;139673143179968</title>
<path fill="none" stroke="black" d="M156.47,-291.59C163.85,-283.93 174.46,-272.91 183.28,-263.75"/>
<polygon fill="black" stroke="black" points="186.04,-265.93 190.46,-256.3 181,-261.07 186.04,-265.93"/>
</g>
<!-- 139673142071552 -->
<g id="node7" class="node">
<title>139673142071552</title>
<polygon fill="lightgrey" stroke="black" points="90.71,-368 6.11,-368 6.11,-348 90.71,-348 90.71,-368"/>
<text text-anchor="middle" x="48.41" y="-355" font-family="monospace" font-size="10.00">AccumulateGrad</text>
</g>
<!-- 139673142071552&#45;&gt;139673143179872 -->
<g id="edge5" class="edge">
<title>139673142071552&#45;&gt;139673143179872</title>
<path fill="none" stroke="black" d="M65.2,-347.84C80.66,-339.41 103.81,-326.78 121.61,-317.07"/>
<polygon fill="black" stroke="black" points="123.76,-319.89 130.86,-312.03 120.41,-313.74 123.76,-319.89"/>
</g>
<!-- 139675626514048 -->
<g id="node8" class="node">
<title>139675626514048</title>
<polygon fill="lightblue" stroke="black" points="86.73,-436 0.09,-436 0.09,-404 86.73,-404 86.73,-436"/>
<text text-anchor="middle" x="43.41" y="-423" font-family="monospace" font-size="10.00">layers.0.lin_l.bias</text>
<text text-anchor="middle" x="43.41" y="-411" font-family="monospace" font-size="10.00"> (7)</text>
</g>
<!-- 139675626514048&#45;&gt;139673142071552 -->
<g id="edge6" class="edge">
<title>139675626514048&#45;&gt;139673142071552</title>
<path fill="none" stroke="black" d="M44.67,-403.86C45.32,-396.13 46.11,-386.63 46.8,-378.37"/>
<polygon fill="black" stroke="black" points="50.3,-378.41 47.65,-368.15 43.33,-377.83 50.3,-378.41"/>
</g>
<!-- 139673143141424 -->
<g id="node9" class="node">
<title>139673143141424</title>
<polygon fill="lightgrey" stroke="black" points="181.05,-368 113.77,-368 113.77,-348 181.05,-348 181.05,-368"/>
<text text-anchor="middle" x="147.41" y="-355" font-family="monospace" font-size="10.00">TBackward0</text>
</g>
<!-- 139673143141424&#45;&gt;139673143179872 -->
<g id="edge7" class="edge">
<title>139673143141424&#45;&gt;139673143179872</title>
<path fill="none" stroke="black" d="M147.41,-347.59C147.41,-340.7 147.41,-331.1 147.41,-322.57"/>
<polygon fill="black" stroke="black" points="150.91,-322.3 147.41,-312.3 143.91,-322.3 150.91,-322.3"/>
</g>
<!-- 139673142074240 -->
<g id="node10" class="node">
<title>139673142074240</title>
<polygon fill="lightgrey" stroke="black" points="189.71,-430 105.11,-430 105.11,-410 189.71,-410 189.71,-430"/>
<text text-anchor="middle" x="147.41" y="-417" font-family="monospace" font-size="10.00">AccumulateGrad</text>
</g>
<!-- 139673142074240&#45;&gt;139673143141424 -->
<g id="edge8" class="edge">
<title>139673142074240&#45;&gt;139673143141424</title>
<path fill="none" stroke="black" d="M147.41,-409.89C147.41,-401.52 147.41,-388.84 147.41,-378.23"/>
<polygon fill="black" stroke="black" points="150.91,-378.2 147.41,-368.2 143.91,-378.2 150.91,-378.2"/>
</g>
<!-- 139673166382640 -->
<g id="node11" class="node">
<title>139673166382640</title>
<polygon fill="lightblue" stroke="black" points="195.34,-504 97.48,-504 97.48,-472 195.34,-472 195.34,-504"/>
<text text-anchor="middle" x="146.41" y="-491" font-family="monospace" font-size="10.00">layers.0.lin_l.weight</text>
<text text-anchor="middle" x="146.41" y="-479" font-family="monospace" font-size="10.00"> (7, 1433)</text>
</g>
<!-- 139673166382640&#45;&gt;139673142074240 -->
<g id="edge9" class="edge">
<title>139673166382640&#45;&gt;139673142074240</title>
<path fill="none" stroke="black" d="M146.64,-471.69C146.78,-462.4 146.96,-450.44 147.11,-440.47"/>
<polygon fill="black" stroke="black" points="150.62,-440.37 147.27,-430.32 143.62,-440.26 150.62,-440.37"/>
</g>
<!-- 139673143181264 -->
<g id="node12" class="node">
<title>139673143181264</title>
<polygon fill="lightgrey" stroke="black" points="291.61,-312 213.21,-312 213.21,-292 291.61,-292 291.61,-312"/>
<text text-anchor="middle" x="252.41" y="-299" font-family="monospace" font-size="10.00">MmBackward0</text>
</g>
<!-- 139673143181264&#45;&gt;139673143179968 -->
<g id="edge10" class="edge">
<title>139673143181264&#45;&gt;139673143179968</title>
<path fill="none" stroke="black" d="M243.18,-291.59C235.58,-283.85 224.62,-272.69 215.57,-263.47"/>
<polygon fill="black" stroke="black" points="218.04,-260.98 208.54,-256.3 213.04,-265.89 218.04,-260.98"/>
</g>
<!-- 139673143181216 -->
<g id="node13" class="node">
<title>139673143181216</title>
<polygon fill="lightgrey" stroke="black" points="292.05,-368 224.77,-368 224.77,-348 292.05,-348 292.05,-368"/>
<text text-anchor="middle" x="258.41" y="-355" font-family="monospace" font-size="10.00">TBackward0</text>
</g>
<!-- 139673143181216&#45;&gt;139673143181264 -->
<g id="edge11" class="edge">
<title>139673143181216&#45;&gt;139673143181264</title>
<path fill="none" stroke="black" d="M257.36,-347.59C256.59,-340.63 255.51,-330.89 254.55,-322.29"/>
<polygon fill="black" stroke="black" points="258.03,-321.85 253.44,-312.3 251.07,-322.62 258.03,-321.85"/>
</g>
<!-- 139673142075200 -->
<g id="node14" class="node">
<title>139673142075200</title>
<polygon fill="lightgrey" stroke="black" points="303.71,-430 219.11,-430 219.11,-410 303.71,-410 303.71,-430"/>
<text text-anchor="middle" x="261.41" y="-417" font-family="monospace" font-size="10.00">AccumulateGrad</text>
</g>
<!-- 139673142075200&#45;&gt;139673143181216 -->
<g id="edge12" class="edge">
<title>139673142075200&#45;&gt;139673143181216</title>
<path fill="none" stroke="black" d="M260.95,-409.89C260.54,-401.52 259.9,-388.84 259.37,-378.23"/>
<polygon fill="black" stroke="black" points="262.86,-378.01 258.87,-368.2 255.87,-378.36 262.86,-378.01"/>
</g>
<!-- 139673176199232 -->
<g id="node15" class="node">
<title>139673176199232</title>
<polygon fill="lightblue" stroke="black" points="311.89,-504 212.93,-504 212.93,-472 311.89,-472 311.89,-504"/>
<text text-anchor="middle" x="262.41" y="-491" font-family="monospace" font-size="10.00">layers.0.lin_r.weight</text>
<text text-anchor="middle" x="262.41" y="-479" font-family="monospace" font-size="10.00"> (7, 1433)</text>
</g>
<!-- 139673176199232&#45;&gt;139673142075200 -->
<g id="edge13" class="edge">
<title>139673176199232&#45;&gt;139673142075200</title>
<path fill="none" stroke="black" d="M262.18,-471.69C262.04,-462.4 261.86,-450.44 261.7,-440.47"/>
<polygon fill="black" stroke="black" points="265.2,-440.26 261.55,-430.32 258.2,-440.37 265.2,-440.26"/>
</g>
</g>
</svg>
